<svg xmlns="http://www.w3.org/2000/svg"
     width="186.251mm" height="186.251mm"
     viewBox="0 0 1100 1100">
  <path id="Selection"
        fill="#3742FA" stroke="none" stroke-width="1"
        d="M 125.00,142.00
           C 125.00,142.00 105.04,159.17 105.04,159.17
             95.85,167.83 83.86,184.54 78.49,196.00
             62.04,231.09 65.00,256.82 65.00,294.00
             65.00,294.00 65.00,416.00 65.00,416.00
             65.00,416.00 65.00,824.00 65.00,824.00
             65.01,836.19 67.08,848.28 70.43,860.00
             71.72,864.55 75.80,874.28 76.00,878.00
             76.00,878.00 90.43,901.00 90.43,901.00
             100.69,915.30 114.80,928.62 130.00,937.55
             169.03,960.48 198.10,957.00 241.00,957.00
             241.00,957.00 372.00,957.00 372.00,957.00
             372.00,957.00 905.00,957.00 905.00,957.00
             957.05,956.92 1007.06,926.07 1028.29,878.00
             1038.41,855.09 1040.04,837.47 1040.00,813.00
             1040.00,813.00 1040.00,251.00 1040.00,251.00
             1039.99,241.60 1038.16,231.11 1035.87,222.00
             1024.38,176.22 990.17,140.36 945.00,126.59
             936.20,123.90 924.18,121.11 915.00,121.00
             915.00,121.00 694.00,121.00 694.00,121.00
             694.00,121.00 209.00,121.00 209.00,121.00
             186.71,120.97 175.63,120.99 154.00,128.69
             147.78,130.91 141.82,133.60 136.00,136.71
             132.60,138.52 128.71,141.39 125.00,142.00 Z
           M 336.00,371.28
           C 363.07,368.77 375.50,382.50 393.00,400.00
             393.00,400.00 425.00,432.00 425.00,432.00
             425.00,432.00 472.00,479.00 472.00,479.00
             483.01,490.01 496.79,501.31 502.54,516.00
             505.53,523.66 506.09,530.90 506.00,539.00
             505.71,563.78 491.06,574.94 475.00,591.00
             475.00,591.00 399.00,667.00 399.00,667.00
             379.80,686.20 368.51,702.33 339.00,702.00
             298.16,701.53 273.43,658.10 290.32,622.00
             295.06,611.87 302.26,605.74 310.00,598.00
             310.00,598.00 338.00,570.00 338.00,570.00
             338.00,570.00 361.00,547.00 361.00,547.00
             363.03,544.97 368.96,539.85 368.96,537.00
             368.96,534.15 363.03,529.03 361.00,527.00
             361.00,527.00 337.00,503.00 337.00,503.00
             337.00,503.00 311.00,477.00 311.00,477.00
             303.05,469.05 295.03,461.39 290.31,451.00
             280.45,429.28 284.65,401.41 303.01,385.30
             313.16,376.40 322.99,373.20 336.00,371.28 Z
           M 611.00,591.10
           C 611.00,591.10 668.00,591.10 668.00,591.10
             668.00,591.10 775.00,591.10 775.00,591.10
             782.77,591.01 788.77,592.06 796.00,595.01
             836.76,611.67 842.10,667.79 806.00,693.22
             796.00,700.26 783.06,702.98 771.00,703.00
             771.00,703.00 622.00,703.00 622.00,703.00
             611.96,702.98 600.83,701.10 592.00,696.13
             558.79,677.41 552.63,630.80 581.00,605.17
             589.95,597.09 599.24,593.24 611.00,591.10 Z" />
</svg>
