<svg xmlns="http://www.w3.org/2000/svg"
     width="177.785mm" height="177.785mm"
     viewBox="0 0 1050 1050">
  <path id="Selection"
        fill="#3742FA" stroke="none" stroke-width="1"
        d="M 695.00,17.44
           C 670.51,21.96 658.29,37.19 658.00,62.00
             658.00,62.00 658.00,264.00 658.00,264.00
             658.03,283.84 666.42,300.40 686.00,307.30
             691.43,309.21 700.19,309.99 706.00,310.00
             706.00,310.00 903.00,310.00 903.00,310.00
             908.35,309.99 918.02,309.14 923.00,307.48
             939.44,302.00 949.59,286.97 950.82,270.00
             951.03,267.07 950.56,264.85 950.08,262.00
             947.35,245.81 940.08,240.08 929.00,229.00
             929.00,229.00 904.00,204.00 904.00,204.00
             904.00,204.00 761.00,61.00 761.00,61.00
             761.00,61.00 741.00,41.00 741.00,41.00
             727.62,27.62 715.74,14.80 695.00,17.44 Z
           M 944.00,413.00
           C 944.00,413.00 726.00,413.00 726.00,413.00
             703.96,413.00 668.36,414.71 648.00,410.55
             621.09,405.05 598.32,390.32 580.17,370.00
             563.52,351.35 551.04,321.16 551.00,296.00
             551.00,296.00 551.00,245.00 551.00,245.00
             551.00,245.00 551.00,20.00 551.00,20.00
             551.00,20.00 262.00,20.00 262.00,20.00
             212.53,20.08 166.64,45.68 143.32,90.00
             136.60,102.78 130.56,121.60 129.04,136.00
             129.04,136.00 129.04,144.00 129.04,144.00
             129.04,144.00 128.00,154.00 128.00,154.00
             128.00,154.00 128.00,243.00 128.00,243.00
             128.00,243.00 128.00,419.00 128.00,419.00
             128.00,419.00 128.00,897.00 128.00,897.00
             128.00,897.00 128.91,909.00 128.91,909.00
             132.38,959.53 161.37,1003.11 209.00,1022.55
             225.04,1029.10 236.97,1030.92 254.00,1032.09
             254.00,1032.09 266.00,1033.00 266.00,1033.00
             266.00,1033.00 807.00,1033.00 807.00,1033.00
             807.00,1033.00 819.00,1031.96 819.00,1031.96
             819.00,1031.96 827.00,1031.96 827.00,1031.96
             842.64,1030.32 858.99,1025.20 873.00,1018.19
             906.91,1001.23 932.46,966.83 940.58,930.00
             942.22,922.54 942.57,916.51 943.09,909.00
             943.09,909.00 944.00,897.00 944.00,897.00
             944.00,897.00 944.00,413.00 944.00,413.00 Z
           M 307.00,282.14
           C 307.00,282.14 350.00,282.14 350.00,282.14
             375.81,282.00 404.36,278.34 424.83,297.44
             454.23,324.86 445.02,374.50 408.00,390.13
             401.39,392.92 394.13,393.99 387.00,394.00
             387.00,394.00 324.00,394.00 324.00,394.00
             303.83,394.00 290.53,396.18 273.00,383.57
             245.32,363.66 243.46,320.48 268.17,297.44
             276.09,290.05 286.24,284.85 297.00,283.30
             297.00,283.30 307.00,282.14 307.00,282.14 Z
           M 306.00,529.07
           C 306.00,529.07 359.00,529.07 359.00,529.07
             359.00,529.07 461.00,529.07 461.00,529.07
             461.00,529.07 759.00,529.07 759.00,529.07
             767.43,529.04 780.25,530.60 788.00,533.87
             806.93,541.87 820.75,561.28 821.00,582.00
             821.10,590.50 821.09,594.75 818.33,603.00
             811.13,624.51 790.77,639.89 768.00,640.00
             768.00,640.00 702.00,640.00 702.00,640.00
             702.00,640.00 304.00,640.00 304.00,640.00
             259.75,639.93 236.83,589.94 259.96,554.00
             267.66,542.03 280.95,533.00 295.00,530.46
             295.00,530.46 306.00,529.07 306.00,529.07 Z
           M 306.00,775.09
           C 306.00,775.09 385.00,775.09 385.00,775.09
             385.00,775.09 537.00,775.09 537.00,775.09
             545.47,775.01 558.14,776.39 566.00,779.46
             585.45,787.07 599.75,806.99 600.00,828.00
             600.00,828.00 600.00,833.00 600.00,833.00
             599.86,862.41 575.14,885.95 546.00,886.00
             546.00,886.00 304.00,886.00 304.00,886.00
             259.75,885.93 236.83,835.94 259.96,800.00
             267.66,788.03 280.95,779.00 295.00,776.46
             295.00,776.46 306.00,775.09 306.00,775.09 Z" />
</svg>
