<?xml version="1.0" encoding="UTF-8" standalone="no"?>
<!DOCTYPE svg PUBLIC "-//W3C//DTD SVG 20010904//EN"
              "http://www.w3.org/TR/2001/REC-SVG-20010904/DTD/svg10.dtd">

<svg xmlns="http://www.w3.org/2000/svg"
     width="186.251mm" height="186.251mm"
     viewBox="0 0 1100 1100">
  <path id="Selection"
        fill="#3742FA" stroke="none" stroke-width="1"
        d="M 122.00,69.07
           C 122.00,69.07 105.42,71.36 105.42,71.36
             98.51,72.57 83.34,77.82 77.00,80.97
             40.17,99.27 12.07,139.14 12.00,181.00
             12.00,181.00 12.00,670.00 12.00,670.00
             11.98,684.85 11.86,697.45 16.21,712.00
             27.66,750.34 58.15,781.45 97.00,792.08
             110.65,795.82 122.07,796.14 136.00,796.00
             136.00,796.00 396.00,796.00 396.00,796.00
             396.00,796.00 977.00,796.00 977.00,796.00
             988.46,795.98 1001.26,793.15 1012.00,789.21
             1059.08,771.95 1088.92,727.84 1089.00,678.00
             1089.00,678.00 1089.00,187.00 1089.00,187.00
             1088.90,122.69 1037.69,69.66 973.00,69.07
             973.00,69.07 786.00,69.07 786.00,69.07
             786.00,69.07 414.00,69.07 414.00,69.07
             414.00,69.07 220.00,69.07 220.00,69.07
             220.00,69.07 157.00,69.07 157.00,69.07
             157.00,69.07 122.00,69.07 122.00,69.07 Z
           M 296.00,851.11
           C 289.28,852.40 282.53,853.05 276.00,855.04
             251.09,862.61 229.10,882.09 219.25,906.28
             199.78,954.12 224.57,1009.83 274.09,1025.69
             282.54,1028.40 290.08,1029.99 299.00,1029.94
             299.00,1029.94 789.00,1029.94 789.00,1029.94
             789.00,1029.94 807.00,1029.94 807.00,1029.94
             828.39,1027.69 846.65,1019.17 861.96,1003.97
             900.54,965.67 894.94,901.01 851.72,868.69
             835.57,856.62 816.00,851.03 796.00,851.11
             796.00,851.11 463.00,851.11 463.00,851.11
             463.00,851.11 353.00,851.11 353.00,851.11
             353.00,851.11 296.00,851.11 296.00,851.11 Z" />
</svg>
