<svg xmlns="http://www.w3.org/2000/svg"
     width="132.275mm" height="132.275mm"
     viewBox="0 0 500 500">
  <path id="Selection"
        fill="white" stroke="white" stroke-width="1"
        d="M 201.00,323.00
           C 201.00,323.00 193.06,334.28 193.06,334.28
             189.37,340.50 185.38,352.74 185.00,360.00
             185.00,360.00 161.09,365.91 161.09,365.91
             148.64,367.77 135.42,364.35 125.04,357.58
             111.74,348.90 109.16,339.02 100.53,329.09
             91.90,319.15 78.57,310.60 65.17,309.45
             60.71,309.06 56.24,310.89 52.00,312.00
             52.63,320.77 56.17,319.92 61.00,326.00
             64.88,326.71 71.57,332.82 74.42,335.76
             87.79,349.52 93.45,370.77 101.45,380.42
             116.40,398.46 135.36,403.77 158.00,404.00
             169.64,404.11 173.11,402.47 184.14,401.00
             184.14,401.00 184.14,445.09 184.14,445.09
             183.97,453.10 179.24,456.28 172.00,458.00
             172.00,458.00 188.00,459.00 188.00,459.00
             188.00,459.00 218.00,459.00 218.00,459.00
             218.00,459.00 278.00,459.00 278.00,459.00
             278.00,459.00 295.00,458.00 295.00,458.00
             295.00,458.00 326.00,458.00 326.00,458.00
             316.07,448.73 318.32,445.79 318.53,433.00
             318.53,433.00 318.53,396.00 318.53,396.00
             318.53,396.00 318.53,386.00 318.53,386.00
             318.53,386.00 318.53,372.00 318.53,372.00
             318.71,361.37 317.85,358.16 315.16,348.17
             313.99,343.79 312.77,338.82 309.00,336.00
             309.00,336.00 306.00,328.00 306.00,328.00
             306.00,328.00 301.00,323.00 301.00,323.00
             309.11,322.69 316.11,321.41 324.00,319.87
             356.26,313.60 387.16,300.02 405.24,270.96
             419.55,247.96 423.79,219.59 424.00,193.00
             424.14,174.81 420.22,157.04 411.49,141.00
             408.57,135.64 405.71,131.86 402.14,127.00
             400.86,125.26 397.92,121.87 397.41,120.00
             396.78,117.75 400.07,108.39 400.51,105.01
             402.50,90.04 401.82,79.69 398.42,65.00
             397.60,61.44 395.47,53.11 392.58,50.93
             387.81,47.34 376.42,50.24 371.17,51.70
             358.45,55.22 347.60,59.94 336.00,66.31
             331.56,68.75 322.53,75.75 318.17,76.25
             315.67,76.54 309.55,74.57 306.72,73.90
             306.72,73.90 290.00,71.08 290.00,71.08
             270.53,67.85 263.55,68.49 244.84,68.11
             235.79,67.93 212.66,70.59 203.58,72.40
             198.99,73.31 186.79,76.83 182.96,75.77
             182.96,75.77 160.41,63.11 160.41,63.11
             150.49,57.64 145.03,56.39 135.00,52.61
             130.61,50.96 115.38,47.81 111.13,49.60
             107.70,51.04 106.92,55.79 105.71,59.00
             102.56,67.36 100.42,81.04 100.74,90.00
             101.02,97.52 101.03,101.73 102.75,109.17
             103.43,112.09 105.83,117.25 105.26,119.83
             105.26,119.83 93.87,136.00 93.87,136.00
             87.11,147.36 81.99,161.23 79.83,174.28
             78.04,185.12 78.40,193.17 78.99,204.00
             80.66,234.43 88.17,264.45 110.09,286.96
             121.66,298.84 138.33,308.40 154.00,313.73
             162.48,316.61 176.12,319.58 185.09,321.12
             190.66,322.07 195.23,323.84 201.00,323.00 Z
           M 170.00,458.00
           C 170.00,458.00 170.00,459.00 170.00,459.00
             170.00,459.00 171.00,458.00 171.00,458.00
             171.00,458.00 170.00,458.00 170.00,458.00 Z
           M 330.00,458.00
           C 330.00,458.00 330.00,459.00 330.00,459.00
             330.00,459.00 331.00,458.00 331.00,458.00
             331.00,458.00 330.00,458.00 330.00,458.00 Z" />
</svg>
