<svg xmlns="http://www.w3.org/2000/svg"
     width="186.251mm" height="186.251mm"
     viewBox="0 0 1100 1100">
  <path id="Selection"
        fill="#3742FA" stroke="none" stroke-width="1"
        d="M 132.00,127.07
           C 114.13,130.35 100.17,133.55 84.00,142.31
             42.94,164.57 13.07,209.60 13.00,257.00
             13.00,257.00 13.00,832.00 13.00,832.00
             13.01,841.44 14.84,851.84 17.13,861.00
             31.53,918.65 77.46,956.31 136.00,962.17
             136.00,962.17 145.00,963.00 145.00,963.00
             145.00,963.00 242.00,963.00 242.00,963.00
             242.00,963.00 434.00,963.00 434.00,963.00
             434.00,963.00 957.00,963.00 957.00,963.00
             1017.59,962.91 1071.14,920.68 1085.87,862.00
             1088.11,853.08 1089.99,843.20 1090.00,834.00
             1090.00,834.00 1090.00,255.00 1090.00,255.00
             1089.99,245.80 1088.11,235.92 1085.87,227.00
             1074.30,180.91 1038.58,144.83 993.00,131.86
             984.59,129.47 973.74,127.11 965.00,127.07
             965.00,127.07 783.00,127.07 783.00,127.07
             783.00,127.07 419.00,127.07 419.00,127.07
             419.00,127.07 228.00,127.07 228.00,127.07
             228.00,127.07 166.00,127.07 166.00,127.07
             166.00,127.07 132.00,127.07 132.00,127.07 Z
           M 157.00,243.14
           C 157.00,243.14 182.00,243.14 182.00,243.14
             199.48,243.00 211.10,241.71 227.00,251.26
             261.07,271.71 261.19,322.61 229.00,344.78
             210.87,357.27 188.86,355.03 168.00,355.00
             157.03,354.98 145.60,353.11 136.00,347.54
             103.62,328.74 98.85,284.28 125.17,258.17
             133.94,249.47 145.06,245.26 157.00,243.14 Z
           M 899.00,243.14
           C 899.00,243.14 924.00,243.14 924.00,243.14
             941.48,243.00 953.10,241.71 969.00,251.26
             1003.07,271.71 1003.19,322.61 971.00,344.78
             952.87,357.27 930.86,355.03 910.00,355.00
             899.03,354.98 887.60,353.11 878.00,347.54
             845.62,328.74 840.85,284.28 867.17,258.17
             875.94,249.47 887.06,245.26 899.00,243.14 Z
           M 446.00,375.30
           C 459.33,374.60 472.84,384.44 484.00,390.99
             484.00,390.99 556.00,432.72 556.00,432.72
             556.00,432.72 640.00,481.40 640.00,481.40
             640.00,481.40 689.00,509.72 689.00,509.72
             704.23,518.38 717.44,524.15 718.25,544.00
             719.14,565.49 704.08,572.14 688.00,581.28
             688.00,581.28 663.00,595.72 663.00,595.72
             663.00,595.72 511.00,683.85 511.00,683.85
             511.00,683.85 475.00,704.72 475.00,704.72
             464.31,710.81 458.90,715.30 446.00,714.99
             427.72,714.54 417.03,700.39 417.00,683.00
             417.00,683.00 417.00,450.00 417.00,450.00
             417.00,450.00 417.00,419.00 417.00,419.00
             417.00,403.10 416.13,387.63 433.00,378.99
             437.02,376.93 441.57,376.01 446.00,375.30 Z
           M 157.00,489.14
           C 157.00,489.14 182.00,489.14 182.00,489.14
             199.48,489.00 211.10,487.71 227.00,497.26
             261.07,517.71 261.19,568.61 229.00,590.78
             210.87,603.27 188.86,601.03 168.00,601.00
             157.03,600.98 145.60,599.11 136.00,593.54
             103.62,574.74 98.85,530.28 125.17,504.17
             133.94,495.47 145.06,491.26 157.00,489.14 Z
           M 899.00,489.14
           C 899.00,489.14 924.00,489.14 924.00,489.14
             941.48,489.00 953.10,487.71 969.00,497.26
             1003.07,517.71 1003.19,568.61 971.00,590.78
             952.87,603.27 930.86,601.03 910.00,601.00
             899.03,600.98 887.60,599.11 878.00,593.54
             845.62,574.74 840.85,530.28 867.17,504.17
             875.94,495.47 887.06,491.26 899.00,489.14 Z
           M 157.00,735.14
           C 157.00,735.14 182.00,735.14 182.00,735.14
             199.48,735.00 211.10,733.71 227.00,743.26
             261.07,763.71 261.19,814.61 229.00,836.78
             210.87,849.27 188.86,847.03 168.00,847.00
             157.03,846.98 145.60,845.11 136.00,839.54
             103.62,820.74 98.85,776.28 125.17,750.17
             133.94,741.47 145.06,737.26 157.00,735.14 Z
           M 899.00,735.14
           C 899.00,735.14 924.00,735.14 924.00,735.14
             941.48,735.00 953.10,733.71 969.00,743.26
             1003.07,763.71 1003.19,814.61 971.00,836.78
             952.87,849.27 930.86,847.03 910.00,847.00
             899.03,846.98 887.60,845.11 878.00,839.54
             845.62,820.74 840.85,776.28 867.17,750.17
             875.94,741.47 887.06,737.26 899.00,735.14 Z" />
</svg>
