<svg xmlns="http://www.w3.org/2000/svg"
     width="186.251mm" height="186.251mm"
     viewBox="0 0 1100 1100">
  <path id="Selection"
        fill="#3742FA" stroke="none" stroke-width="1"
        d="M 461.00,813.00
           C 461.00,813.00 461.00,878.00 461.00,878.00
             461.00,878.00 325.00,878.00 325.00,878.00
             295.84,878.00 272.66,874.28 247.00,891.75
             239.21,897.05 232.15,904.18 226.95,912.04
             218.67,924.54 213.94,938.97 213.09,954.00
             212.88,957.78 213.59,960.35 213.93,964.00
             217.68,1004.55 251.52,1034.52 292.00,1035.00
             292.00,1035.00 476.00,1035.00 476.00,1035.00
             476.00,1035.00 808.00,1035.00 808.00,1035.00
             834.94,1034.96 860.19,1022.62 875.40,1000.00
             898.92,965.03 889.75,915.75 854.96,891.83
             829.29,874.18 805.32,878.00 776.00,878.00
             776.00,878.00 640.00,878.00 640.00,878.00
             640.00,878.00 640.00,813.00 640.00,813.00
             640.00,813.00 973.00,813.00 973.00,813.00
             1020.80,812.93 1063.42,784.45 1081.20,740.00
             1085.98,728.06 1088.98,715.90 1089.00,703.00
             1089.00,703.00 1089.00,203.00 1089.00,203.00
             1088.99,193.57 1086.97,184.02 1084.28,175.00
             1083.07,170.94 1080.20,164.74 1080.00,161.00
             1080.00,161.00 1063.33,136.00 1063.33,136.00
             1052.09,121.86 1037.26,111.26 1021.00,103.63
             993.40,90.69 960.78,94.00 931.00,94.00
             931.00,94.00 775.00,94.00 775.00,94.00
             775.00,94.00 123.00,94.00 123.00,94.00
             81.16,94.07 40.83,122.79 23.17,160.00
             15.98,175.14 12.03,196.28 12.00,213.00
             12.00,213.00 12.00,692.00 12.00,692.00
             12.00,692.00 13.04,704.00 13.04,704.00
             13.04,704.00 13.04,712.00 13.04,712.00
             14.06,720.88 18.53,735.81 22.17,744.00
             41.00,786.37 82.88,812.93 129.00,813.00
             129.00,813.00 461.00,813.00 461.00,813.00 Z
           M 244.00,250.07
           C 244.00,250.07 313.00,250.07 313.00,250.07
             313.00,250.07 447.00,250.07 447.00,250.07
             447.00,250.07 850.00,250.07 850.00,250.07
             881.32,250.05 908.95,276.40 909.00,308.00
             909.00,308.00 909.00,597.00 909.00,597.00
             908.95,630.54 880.80,655.61 848.00,656.00
             848.00,656.00 759.00,656.00 759.00,656.00
             759.00,656.00 255.00,656.00 255.00,656.00
             228.53,655.96 205.32,642.21 195.46,617.00
             192.46,609.32 191.01,597.27 191.00,589.00
             191.00,589.00 191.00,412.00 191.00,412.00
             191.00,412.00 191.00,314.00 191.00,314.00
             191.39,280.96 210.84,255.78 244.00,250.07 Z" />
</svg>
