<svg xmlns="http://www.w3.org/2000/svg"
     width="84.6597mm" height="84.6597mm"
     viewBox="0 0 500 500">
  <path id="Selection"
        fill="white" stroke="white" stroke-width="1"
        d="M 93.00,48.43
           C 77.65,50.94 65.86,56.61 58.12,71.00
             55.18,76.47 54.08,80.83 54.00,87.00
             53.92,94.09 53.72,99.24 56.47,106.00
             62.74,121.36 79.62,131.80 96.00,132.00
             105.81,132.11 113.13,131.58 122.00,126.65
             142.37,115.33 151.08,88.06 137.89,68.00
             128.34,53.46 109.93,46.34 93.00,48.43 Z
           M 279.00,212.00
           C 279.00,212.00 279.00,162.00 279.00,162.00
             279.00,162.00 196.00,162.00 196.00,162.00
             196.00,162.00 196.00,435.00 196.00,435.00
             196.00,435.00 284.00,435.00 284.00,435.00
             284.00,435.00 284.00,279.00 284.00,279.00
             284.04,253.24 299.49,233.43 326.00,231.32
             328.78,231.10 331.25,231.64 334.00,231.95
             358.06,234.67 370.96,253.89 371.00,277.00
             371.00,277.00 371.00,435.00 371.00,435.00
             371.00,435.00 459.00,435.00 459.00,435.00
             459.00,435.00 459.00,253.00 459.00,253.00
             458.94,217.69 438.86,181.39 406.00,166.86
             388.30,159.04 376.74,158.97 358.00,159.00
             334.83,159.04 309.23,170.12 294.32,188.00
             294.32,188.00 279.00,212.00 279.00,212.00 Z
           M 55.00,162.00
           C 55.00,162.00 55.00,435.00 55.00,435.00
             55.00,435.00 143.00,435.00 143.00,435.00
             143.00,435.00 143.00,162.00 143.00,162.00
             143.00,162.00 55.00,162.00 55.00,162.00 Z" />
</svg>
