<svg xmlns="http://www.w3.org/2000/svg"
     width="186.251mm" height="186.251mm"
     viewBox="0 0 1100 1100">
  <path id="Selection"
        fill="#3742FA" stroke="none" stroke-width="1"
        d="M 218.00,1022.00
           C 218.00,1022.00 232.67,1043.00 232.67,1043.00
             241.84,1054.54 254.05,1064.69 267.00,1071.69
             298.34,1088.64 322.99,1086.00 357.00,1086.00
             357.00,1086.00 469.00,1086.00 469.00,1086.00
             469.00,1086.00 811.00,1086.00 811.00,1086.00
             823.38,1085.98 839.37,1083.09 851.00,1078.85
             861.23,1075.12 871.20,1069.79 880.00,1063.36
             904.54,1045.43 920.84,1017.91 925.56,988.00
             927.87,973.36 927.00,951.42 927.00,936.00
             927.00,936.00 927.00,866.00 927.00,866.00
             927.00,866.00 927.00,123.00 927.00,123.00
             926.97,103.08 920.00,80.15 909.69,63.17
             891.07,32.50 852.14,9.06 816.00,9.00
             816.00,9.00 319.00,9.00 319.00,9.00
             305.61,9.02 292.39,12.06 280.00,17.00
             268.61,21.54 262.91,24.77 253.00,32.12
             225.84,52.26 207.05,86.83 207.00,121.00
             207.00,121.00 207.00,160.00 207.00,160.00
             207.00,160.00 207.00,239.00 207.00,239.00
             207.00,239.00 207.00,975.00 207.00,975.00
             207.02,985.19 209.26,995.32 212.34,1005.00
             212.34,1005.00 218.00,1022.00 218.00,1022.00 Z
           M 417.00,188.07
           C 417.00,188.07 452.00,188.07 452.00,188.07
             452.00,188.07 516.00,188.07 516.00,188.07
             516.00,188.07 710.00,188.07 710.00,188.07
             744.48,188.05 769.95,216.16 770.00,250.00
             770.00,250.00 770.00,339.00 770.00,339.00
             770.00,339.00 770.00,844.00 770.00,844.00
             769.94,879.90 742.57,905.94 707.00,906.00
             707.00,906.00 427.00,906.00 427.00,906.00
             419.74,905.99 411.90,904.97 405.00,902.64
             399.60,900.83 394.67,898.21 390.00,894.96
             373.43,883.45 364.03,865.12 364.00,845.00
             364.00,845.00 364.00,818.00 364.00,818.00
             364.00,818.00 364.00,764.00 364.00,764.00
             364.00,764.00 364.00,327.00 364.00,327.00
             364.00,327.00 364.00,273.00 364.00,273.00
             364.00,246.05 361.61,221.73 385.00,202.46
             388.49,199.59 393.93,195.82 398.00,193.89
             404.36,190.88 410.11,189.43 417.00,188.07 Z
           M 557.00,617.21
           C 542.27,619.84 531.27,623.19 519.00,632.16
             510.52,638.35 501.40,647.79 496.31,657.00
             475.61,694.47 483.61,741.48 520.00,766.25
             529.91,773.00 538.37,776.48 550.00,779.11
             560.26,781.43 569.68,781.32 580.00,779.73
             591.37,777.97 602.43,773.90 612.00,767.48
             652.31,740.45 661.50,684.77 630.54,647.00
             621.88,636.44 613.16,630.13 601.00,624.26
             591.86,619.84 580.15,617.05 570.00,617.21
             570.00,617.21 557.00,617.21 557.00,617.21 Z" />
</svg>
